<svg width="98" height="13" viewBox="0 0 98 13" fill="none" xmlns="http://www.w3.org/2000/svg">
<path d="M0.0113636 12V0.363636H4.67045C5.52652 0.363636 6.24053 0.49053 6.8125 0.744318C7.38447 0.998106 7.81439 1.35038 8.10227 1.80114C8.39015 2.24811 8.53409 2.76326 8.53409 3.34659C8.53409 3.80114 8.44318 4.20076 8.26136 4.54545C8.07955 4.88636 7.82955 5.16667 7.51136 5.38636C7.19697 5.60227 6.83712 5.75568 6.43182 5.84659V5.96023C6.875 5.97917 7.28977 6.10417 7.67614 6.33523C8.06629 6.56629 8.38258 6.89015 8.625 7.30682C8.86742 7.7197 8.98864 8.21212 8.98864 8.78409C8.98864 9.40152 8.83523 9.95265 8.52841 10.4375C8.22538 10.9186 7.77652 11.2992 7.18182 11.5795C6.58712 11.8598 5.85417 12 4.98295 12H0.0113636ZM2.47159 9.98864H4.47727C5.16288 9.98864 5.66288 9.85795 5.97727 9.59659C6.29167 9.33144 6.44886 8.97917 6.44886 8.53977C6.44886 8.2178 6.37121 7.93371 6.21591 7.6875C6.06061 7.44129 5.83902 7.24811 5.55114 7.10795C5.26705 6.9678 4.92803 6.89773 4.53409 6.89773H2.47159V9.98864ZM2.47159 5.23295H4.29545C4.63258 5.23295 4.93182 5.17424 5.19318 5.05682C5.45833 4.93561 5.66667 4.76515 5.81818 4.54545C5.97348 4.32576 6.05114 4.0625 6.05114 3.75568C6.05114 3.33523 5.90152 2.99621 5.60227 2.73864C5.30682 2.48106 4.88636 2.35227 4.34091 2.35227H2.47159V5.23295ZM12.5952 12H9.95881L13.9759 0.363636H17.1463L21.1577 12H18.5213L15.6065 3.02273H15.5156L12.5952 12ZM12.4304 7.42614H18.6577V9.34659H12.4304V7.42614ZM22.5582 12V0.363636H27.1491C28.0279 0.363636 28.7779 0.520833 29.3991 0.835227C30.0241 1.14583 30.4995 1.58712 30.8253 2.15909C31.1548 2.72727 31.3196 3.39583 31.3196 4.16477C31.3196 4.9375 31.1529 5.60227 30.8196 6.15909C30.4863 6.71212 30.0033 7.13636 29.3707 7.43182C28.742 7.72727 27.9806 7.875 27.0866 7.875H24.0128V5.89773H26.6889C27.1586 5.89773 27.5488 5.83333 27.8594 5.70455C28.17 5.57576 28.401 5.38258 28.5526 5.125C28.7079 4.86742 28.7855 4.54735 28.7855 4.16477C28.7855 3.77841 28.7079 3.45265 28.5526 3.1875C28.401 2.92235 28.1681 2.72159 27.8537 2.58523C27.5431 2.44508 27.151 2.375 26.6776 2.375H25.0185V12H22.5582ZM28.8423 6.70455L31.7344 12H29.0185L26.1889 6.70455H28.8423ZM33.0582 12V0.363636H37.7173C38.5734 0.363636 39.2874 0.49053 39.8594 0.744318C40.4313 0.998106 40.8613 1.35038 41.1491 1.80114C41.437 2.24811 41.581 2.76326 41.581 3.34659C41.581 3.80114 41.4901 4.20076 41.3082 4.54545C41.1264 4.88636 40.8764 5.16667 40.5582 5.38636C40.2438 5.60227 39.884 5.75568 39.4787 5.84659V5.96023C39.9219 5.97917 40.3366 6.10417 40.723 6.33523C41.1132 6.56629 41.4295 6.89015 41.6719 7.30682C41.9143 7.7197 42.0355 8.21212 42.0355 8.78409C42.0355 9.40152 41.8821 9.95265 41.5753 10.4375C41.2723 10.9186 40.8234 11.2992 40.2287 11.5795C39.634 11.8598 38.901 12 38.0298 12H33.0582ZM35.5185 9.98864H37.5241C38.2098 9.98864 38.7098 9.85795 39.0241 9.59659C39.3385 9.33144 39.4957 8.97917 39.4957 8.53977C39.4957 8.2178 39.4181 7.93371 39.2628 7.6875C39.1075 7.44129 38.8859 7.24811 38.598 7.10795C38.3139 6.9678 37.9749 6.89773 37.581 6.89773H35.5185V9.98864ZM35.5185 5.23295H37.3423C37.6795 5.23295 37.9787 5.17424 38.2401 5.05682C38.5052 4.93561 38.7135 4.76515 38.8651 4.54545C39.0204 4.32576 39.098 4.0625 39.098 3.75568C39.098 3.33523 38.9484 2.99621 38.6491 2.73864C38.3537 2.48106 37.9332 2.35227 37.3878 2.35227H35.5185V5.23295ZM45.642 12H43.0057L47.0227 0.363636H50.1932L54.2045 12H51.5682L48.6534 3.02273H48.5625L45.642 12ZM45.4773 7.42614H51.7045V9.34659H45.4773V7.42614ZM59.7301 12H55.6051V0.363636H59.7642C60.9347 0.363636 61.9422 0.596591 62.7869 1.0625C63.6316 1.52462 64.2813 2.18939 64.7358 3.05682C65.1941 3.92424 65.4233 4.96212 65.4233 6.17045C65.4233 7.38258 65.1941 8.42424 64.7358 9.29545C64.2813 10.1667 63.6278 10.8352 62.7756 11.3011C61.9271 11.767 60.9119 12 59.7301 12ZM58.0653 9.89205H59.6278C60.3551 9.89205 60.9669 9.76326 61.4631 9.50568C61.9631 9.24432 62.3381 8.84091 62.5881 8.29545C62.8419 7.74621 62.9688 7.03788 62.9688 6.17045C62.9688 5.31061 62.8419 4.60795 62.5881 4.0625C62.3381 3.51705 61.965 3.11553 61.4688 2.85795C60.9725 2.60038 60.3608 2.47159 59.6335 2.47159H58.0653V9.89205ZM67.2457 12V0.363636H75.0866V2.39205H69.706V5.16477H74.6832V7.19318H69.706V9.97159H75.1094V12H67.2457ZM86.7756 0.363636V12H84.6506L79.5881 4.67614H79.5028V12H77.0426V0.363636H79.2017L84.2244 7.68182H84.3267V0.363636H86.7756ZM95.1207 3.71023C95.0753 3.25189 94.8802 2.89583 94.5355 2.64205C94.1908 2.38826 93.723 2.26136 93.1321 2.26136C92.7306 2.26136 92.3916 2.31818 92.1151 2.43182C91.8385 2.54167 91.6264 2.69508 91.4787 2.89205C91.3348 3.08902 91.2628 3.3125 91.2628 3.5625C91.2552 3.77083 91.2988 3.95265 91.3935 4.10795C91.492 4.26326 91.6264 4.39773 91.7969 4.51136C91.9673 4.62121 92.1643 4.7178 92.3878 4.80114C92.6113 4.88068 92.8499 4.94886 93.1037 5.00568L94.1491 5.25568C94.6567 5.36932 95.1226 5.52083 95.5469 5.71023C95.9711 5.89962 96.3385 6.13258 96.6491 6.40909C96.9598 6.68561 97.2003 7.01136 97.3707 7.38636C97.545 7.76136 97.634 8.19129 97.6378 8.67614C97.634 9.38826 97.4522 10.0057 97.0923 10.5284C96.7363 11.0473 96.2211 11.4508 95.5469 11.7386C94.8764 12.0227 94.0677 12.1648 93.1207 12.1648C92.1813 12.1648 91.3632 12.0208 90.6662 11.733C89.973 11.4451 89.4313 11.0189 89.0412 10.4545C88.6548 9.88636 88.4522 9.18371 88.4332 8.34659H90.8139C90.8404 8.73674 90.9522 9.0625 91.1491 9.32386C91.3499 9.58144 91.617 9.77652 91.9503 9.90909C92.2874 10.0379 92.6681 10.1023 93.0923 10.1023C93.509 10.1023 93.8707 10.0417 94.1776 9.92045C94.4882 9.79924 94.7287 9.63068 94.8991 9.41477C95.0696 9.19886 95.1548 8.95076 95.1548 8.67045C95.1548 8.40909 95.0772 8.18939 94.9219 8.01136C94.7704 7.83333 94.5469 7.68182 94.2514 7.55682C93.9598 7.43182 93.6018 7.31818 93.1776 7.21591L91.9105 6.89773C90.9295 6.65909 90.1548 6.28598 89.5866 5.77841C89.0185 5.27083 88.7363 4.58712 88.7401 3.72727C88.7363 3.02273 88.9238 2.4072 89.3026 1.88068C89.6851 1.35417 90.2098 0.943182 90.8764 0.647727C91.5431 0.352272 92.3007 0.204545 93.1491 0.204545C94.0128 0.204545 94.7666 0.352272 95.4105 0.647727C96.0582 0.943182 96.562 1.35417 96.9219 1.88068C97.2817 2.4072 97.4673 3.01705 97.4787 3.71023H95.1207Z" fill="black"/>
</svg>
