<svg width="183" height="42" viewBox="0 0 183 42" fill="none" xmlns="http://www.w3.org/2000/svg"><path d="M54.3666 11.688C54.9213 11.9653 55.2413 12.4027 55.3266 13C55.4333 13.5973 55.284 14.1413 54.8786 14.632C54.6013 15.016 54.2386 15.2293 53.7906 15.272C53.364 15.3147 52.9266 15.2293 52.4786 15.016C51.9666 14.7813 51.4226 14.6 50.8466 14.472C50.292 14.344 49.7053 14.28 49.0866 14.28C47.9346 14.28 46.9 14.4613 45.9826 14.824C45.0866 15.1867 44.3186 15.7093 43.6786 16.392C43.0386 17.0533 42.548 17.8427 42.2066 18.76C41.8866 19.6773 41.7266 20.6907 41.7266 21.8C41.7266 23.1013 41.908 24.232 42.2706 25.192C42.6546 26.152 43.1773 26.952 43.8386 27.592C44.5 28.232 45.2786 28.712 46.1746 29.032C47.0706 29.3307 48.0413 29.48 49.0866 29.48C49.6626 29.48 50.2386 29.4267 50.8146 29.32C51.3906 29.2133 51.9453 29.0213 52.4786 28.744C52.9266 28.5307 53.364 28.456 53.7906 28.52C54.2386 28.584 54.612 28.808 54.9106 29.192C55.3373 29.7253 55.4866 30.28 55.3586 30.856C55.252 31.4107 54.932 31.816 54.3986 32.072C53.844 32.3493 53.268 32.584 52.6706 32.776C52.0946 32.9467 51.508 33.0747 50.9106 33.16C50.3133 33.2667 49.7053 33.32 49.0866 33.32C47.5506 33.32 46.0893 33.0747 44.7026 32.584C43.3373 32.0933 42.1106 31.368 41.0226 30.408C39.956 29.448 39.1133 28.2533 38.4946 26.824C37.876 25.3733 37.5666 23.6987 37.5666 21.8C37.5666 20.1573 37.844 18.6427 38.3986 17.256C38.9746 15.8693 39.7746 14.6747 40.7986 13.672C41.844 12.648 43.0706 11.8587 44.4786 11.304C45.8866 10.728 47.4226 10.44 49.0866 10.44C50.0253 10.44 50.9426 10.5467 51.8386 10.76C52.7346 10.9733 53.5773 11.2827 54.3666 11.688ZM66.4931 33.32C64.6798 33.32 63.1011 32.9467 61.7571 32.2C60.4345 31.432 59.4105 30.3973 58.6851 29.096C57.9811 27.7947 57.6291 26.3227 57.6291 24.68C57.6291 22.76 58.0131 21.128 58.7811 19.784C59.5705 18.4187 60.5945 17.3733 61.8531 16.648C63.1118 15.9227 64.4451 15.56 65.8531 15.56C66.9411 15.56 67.9651 15.784 68.9251 16.232C69.9065 16.68 70.7705 17.2987 71.5171 18.088C72.2638 18.856 72.8505 19.752 73.2771 20.776C73.7251 21.8 73.9491 22.888 73.9491 24.04C73.9278 24.552 73.7251 24.968 73.3411 25.288C72.9571 25.608 72.5091 25.768 71.9971 25.768H59.7731L58.8131 22.568H70.5571L69.8531 23.208V22.344C69.8105 21.7253 69.5865 21.1707 69.1811 20.68C68.7971 20.1893 68.3065 19.8053 67.7091 19.528C67.1331 19.2293 66.5145 19.08 65.8531 19.08C65.2131 19.08 64.6158 19.1653 64.0611 19.336C63.5065 19.5067 63.0265 19.7947 62.6211 20.2C62.2158 20.6053 61.8958 21.1493 61.6611 21.832C61.4265 22.5147 61.3091 23.3787 61.3091 24.424C61.3091 25.576 61.5438 26.5573 62.0131 27.368C62.5038 28.1573 63.1225 28.7653 63.8691 29.192C64.6371 29.5973 65.4478 29.8 66.3011 29.8C67.0905 29.8 67.7198 29.736 68.1891 29.608C68.6585 29.48 69.0318 29.3307 69.3091 29.16C69.6078 28.968 69.8745 28.808 70.1091 28.68C70.4931 28.488 70.8558 28.392 71.1971 28.392C71.6665 28.392 72.0505 28.552 72.3491 28.872C72.6691 29.192 72.8291 29.5653 72.8291 29.992C72.8291 30.568 72.5305 31.0907 71.9331 31.56C71.3785 32.0293 70.5998 32.4453 69.5971 32.808C68.5945 33.1493 67.5598 33.32 66.4931 33.32ZM79.2241 33C78.6695 33 78.2108 32.8187 77.8481 32.456C77.4855 32.072 77.3041 31.6027 77.3041 31.048V17.832C77.3041 17.2773 77.4855 16.8187 77.8481 16.456C78.2108 16.072 78.6695 15.88 79.2241 15.88C79.7788 15.88 80.2375 16.072 80.6001 16.456C80.9628 16.8187 81.1441 17.2773 81.1441 17.832V20.84L80.9201 18.696C81.1548 18.184 81.4535 17.736 81.8161 17.352C82.2001 16.9467 82.6268 16.616 83.0961 16.36C83.5655 16.0827 84.0668 15.88 84.6001 15.752C85.1335 15.624 85.6668 15.56 86.2001 15.56C86.8401 15.56 87.3735 15.7413 87.8001 16.104C88.2481 16.4667 88.4721 16.8933 88.4721 17.384C88.4721 18.088 88.2908 18.6 87.9281 18.92C87.5655 19.2187 87.1708 19.368 86.7441 19.368C86.3388 19.368 85.9655 19.2933 85.6241 19.144C85.3041 18.9947 84.9308 18.92 84.5041 18.92C84.1201 18.92 83.7255 19.016 83.3201 19.208C82.9361 19.3787 82.5735 19.656 82.2321 20.04C81.9121 20.424 81.6455 20.904 81.4321 21.48C81.2401 22.0347 81.1441 22.696 81.1441 23.464V31.048C81.1441 31.6027 80.9628 32.072 80.6001 32.456C80.2375 32.8187 79.7788 33 79.2241 33ZM91.3711 16.2H98.9551C99.4671 16.2 99.8938 16.3707 100.235 16.712C100.576 17.0533 100.747 17.48 100.747 17.992C100.747 18.4827 100.576 18.8987 100.235 19.24C99.8938 19.56 99.4671 19.72 98.9551 19.72H91.3711C90.8591 19.72 90.4325 19.5493 90.0911 19.208C89.7498 18.8667 89.5791 18.44 89.5791 17.928C89.5791 17.4373 89.7498 17.032 90.0911 16.712C90.4325 16.3707 90.8591 16.2 91.3711 16.2ZM94.7951 12.2C95.3498 12.2 95.7978 12.392 96.1391 12.776C96.5018 13.1387 96.6831 13.5973 96.6831 14.152V28.392C96.6831 28.6907 96.7365 28.936 96.8431 29.128C96.9711 29.32 97.1311 29.4587 97.3231 29.544C97.5365 29.6293 97.7605 29.672 97.9951 29.672C98.2511 29.672 98.4858 29.6293 98.6991 29.544C98.9125 29.4373 99.1578 29.384 99.4351 29.384C99.7338 29.384 100 29.5227 100.235 29.8C100.491 30.0773 100.619 30.4613 100.619 30.952C100.619 31.5493 100.288 32.04 99.6271 32.424C98.9871 32.808 98.2938 33 97.5471 33C97.0991 33 96.5978 32.968 96.0431 32.904C95.5098 32.8187 94.9978 32.6373 94.5071 32.36C94.0378 32.0613 93.6431 31.6133 93.3231 31.016C93.0031 30.4187 92.8431 29.5973 92.8431 28.552V14.152C92.8431 13.5973 93.0245 13.1387 93.3871 12.776C93.7711 12.392 94.2405 12.2 94.7951 12.2ZM107.889 31.048C107.889 31.6027 107.708 32.072 107.345 32.456C106.982 32.8187 106.524 33 105.969 33C105.414 33 104.956 32.8187 104.593 32.456C104.23 32.072 104.049 31.6027 104.049 31.048V17.832C104.049 17.2773 104.23 16.8187 104.593 16.456C104.956 16.072 105.414 15.88 105.969 15.88C106.524 15.88 106.982 16.072 107.345 16.456C107.708 16.8187 107.889 17.2773 107.889 17.832V31.048ZM105.937 13.8C105.212 13.8 104.7 13.6827 104.401 13.448C104.102 13.2133 103.953 12.7973 103.953 12.2V11.592C103.953 10.9733 104.113 10.5573 104.433 10.344C104.774 10.1093 105.286 9.992 105.969 9.992C106.716 9.992 107.238 10.1093 107.537 10.344C107.836 10.5787 107.985 10.9947 107.985 11.592V12.2C107.985 12.8187 107.825 13.2453 107.505 13.48C107.185 13.6933 106.662 13.8 105.937 13.8ZM137.339 10.504C137.83 10.504 138.299 10.696 138.747 11.08C139.195 11.4427 139.419 11.944 139.419 12.584C139.419 12.776 139.387 12.9893 139.323 13.224L133.019 31.784C132.891 32.168 132.657 32.4667 132.315 32.68C131.995 32.872 131.654 32.9787 131.291 33C130.929 33 130.566 32.8933 130.203 32.68C129.862 32.4667 129.595 32.1573 129.403 31.752L124.667 21L124.955 21.192L120.283 31.752C120.091 32.1573 119.814 32.4667 119.451 32.68C119.11 32.8933 118.758 33 118.395 33C118.054 32.9787 117.713 32.872 117.371 32.68C117.03 32.4667 116.795 32.168 116.667 31.784L110.363 13.224C110.299 12.9893 110.267 12.776 110.267 12.584C110.267 11.944 110.491 11.4427 110.939 11.08C111.409 10.696 111.889 10.504 112.379 10.504C112.785 10.504 113.158 10.6107 113.499 10.824C113.862 11.0373 114.107 11.3467 114.235 11.752L119.323 27.176L118.619 27.144L123.163 16.232C123.334 15.848 123.579 15.5493 123.899 15.336C124.219 15.1013 124.582 14.9947 124.987 15.016C125.393 14.9947 125.755 15.1013 126.075 15.336C126.395 15.5493 126.63 15.848 126.779 16.232L130.939 26.664L130.427 26.984L135.451 11.752C135.579 11.3467 135.825 11.0373 136.187 10.824C136.55 10.6107 136.934 10.504 137.339 10.504ZM145.639 31.048C145.639 31.6027 145.458 32.072 145.095 32.456C144.732 32.8187 144.274 33 143.719 33C143.164 33 142.706 32.8187 142.343 32.456C141.98 32.072 141.799 31.6027 141.799 31.048V17.832C141.799 17.2773 141.98 16.8187 142.343 16.456C142.706 16.072 143.164 15.88 143.719 15.88C144.274 15.88 144.732 16.072 145.095 16.456C145.458 16.8187 145.639 17.2773 145.639 17.832V31.048ZM143.687 13.8C142.962 13.8 142.45 13.6827 142.151 13.448C141.852 13.2133 141.703 12.7973 141.703 12.2V11.592C141.703 10.9733 141.863 10.5573 142.183 10.344C142.524 10.1093 143.036 9.992 143.719 9.992C144.466 9.992 144.988 10.1093 145.287 10.344C145.586 10.5787 145.735 10.9947 145.735 11.592V12.2C145.735 12.8187 145.575 13.2453 145.255 13.48C144.935 13.6933 144.412 13.8 143.687 13.8ZM148.593 30.344C148.38 30.0453 148.284 29.6613 148.305 29.192C148.327 28.7227 148.604 28.3173 149.137 27.976C149.479 27.7627 149.841 27.6773 150.225 27.72C150.609 27.7413 150.983 27.9333 151.345 28.296C151.964 28.9147 152.615 29.3947 153.297 29.736C153.98 30.0773 154.833 30.248 155.857 30.248C156.177 30.2267 156.529 30.184 156.913 30.12C157.297 30.0347 157.628 29.864 157.905 29.608C158.204 29.3307 158.353 28.9147 158.353 28.36C158.353 27.8907 158.193 27.5173 157.873 27.24C157.553 26.9627 157.127 26.728 156.593 26.536C156.081 26.344 155.505 26.1627 154.865 25.992C154.204 25.8 153.521 25.5867 152.817 25.352C152.135 25.1173 151.505 24.8187 150.929 24.456C150.353 24.072 149.884 23.5707 149.521 22.952C149.159 22.3333 148.977 21.5547 148.977 20.616C148.977 19.5493 149.276 18.6427 149.873 17.896C150.471 17.1493 151.239 16.5733 152.177 16.168C153.137 15.7627 154.14 15.56 155.185 15.56C155.847 15.56 156.54 15.6453 157.265 15.816C157.991 15.9653 158.684 16.2213 159.345 16.584C160.007 16.9253 160.561 17.384 161.009 17.96C161.244 18.28 161.383 18.664 161.425 19.112C161.468 19.56 161.265 19.9653 160.817 20.328C160.497 20.584 160.124 20.7013 159.697 20.68C159.271 20.6373 158.919 20.488 158.641 20.232C158.279 19.7627 157.788 19.3893 157.169 19.112C156.572 18.8347 155.879 18.696 155.089 18.696C154.769 18.696 154.417 18.7387 154.033 18.824C153.671 18.888 153.351 19.048 153.073 19.304C152.796 19.5387 152.657 19.9227 152.657 20.456C152.657 20.9467 152.817 21.3413 153.137 21.64C153.457 21.9173 153.884 22.152 154.417 22.344C154.972 22.5147 155.559 22.6853 156.177 22.856C156.817 23.0267 157.468 23.2293 158.129 23.464C158.791 23.6987 159.399 24.008 159.953 24.392C160.508 24.776 160.956 25.2773 161.297 25.896C161.639 26.4933 161.809 27.2613 161.809 28.2C161.809 29.288 161.489 30.216 160.849 30.984C160.209 31.752 159.409 32.3387 158.449 32.744C157.489 33.128 156.508 33.32 155.505 33.32C154.247 33.32 152.988 33.1067 151.729 32.68C150.471 32.232 149.425 31.4533 148.593 30.344ZM173.087 33.32C171.274 33.32 169.695 32.9467 168.351 32.2C167.028 31.432 166.004 30.3973 165.279 29.096C164.575 27.7947 164.223 26.3227 164.223 24.68C164.223 22.76 164.607 21.128 165.375 19.784C166.164 18.4187 167.188 17.3733 168.447 16.648C169.706 15.9227 171.039 15.56 172.447 15.56C173.535 15.56 174.559 15.784 175.519 16.232C176.5 16.68 177.364 17.2987 178.111 18.088C178.858 18.856 179.444 19.752 179.871 20.776C180.319 21.8 180.543 22.888 180.543 24.04C180.522 24.552 180.319 24.968 179.935 25.288C179.551 25.608 179.103 25.768 178.591 25.768H166.367L165.407 22.568H177.151L176.447 23.208V22.344C176.404 21.7253 176.18 21.1707 175.775 20.68C175.391 20.1893 174.9 19.8053 174.303 19.528C173.727 19.2293 173.108 19.08 172.447 19.08C171.807 19.08 171.21 19.1653 170.655 19.336C170.1 19.5067 169.62 19.7947 169.215 20.2C168.81 20.6053 168.49 21.1493 168.255 21.832C168.02 22.5147 167.903 23.3787 167.903 24.424C167.903 25.576 168.138 26.5573 168.607 27.368C169.098 28.1573 169.716 28.7653 170.463 29.192C171.231 29.5973 172.042 29.8 172.895 29.8C173.684 29.8 174.314 29.736 174.783 29.608C175.252 29.48 175.626 29.3307 175.903 29.16C176.202 28.968 176.468 28.808 176.703 28.68C177.087 28.488 177.45 28.392 177.791 28.392C178.26 28.392 178.644 28.552 178.943 28.872C179.263 29.192 179.423 29.5653 179.423 29.992C179.423 30.568 179.124 31.0907 178.527 31.56C177.972 32.0293 177.194 32.4453 176.191 32.808C175.188 33.1493 174.154 33.32 173.087 33.32Z" fill="url(#paint0_linear_159_268)"></path><g clip-path="url(#clip0_159_268)"><path fill-rule="evenodd" clip-rule="evenodd" d="M15.4355 8.6823C15.9746 8.48058 16.5637 8.45428 17.1187 8.60715L17.3537 8.6823L26.9172 12.2686C27.4021 12.4504 27.8253 12.7663 28.1376 13.1795C28.4499 13.5926 28.6383 14.086 28.681 14.6021L28.6905 14.8275V22.1545C28.6905 24.3684 28.0927 26.5412 26.9603 28.4435C25.828 30.3458 24.203 31.9072 22.257 32.9627L21.8936 33.1526L17.3113 35.4437C17.059 35.5697 16.7834 35.6423 16.5018 35.6568C16.2201 35.6714 15.9385 35.6277 15.6746 35.5284L15.4778 35.4437L10.8956 33.1526C8.91538 32.1625 7.23926 30.6561 6.04413 28.7925C4.849 26.9288 4.17921 24.7771 4.10546 22.5644L4.09863 22.1545V14.8275C4.09864 14.3099 4.24567 13.8029 4.52262 13.3656C4.79956 12.9283 5.19501 12.5787 5.66295 12.3574L5.87198 12.2686L15.4355 8.6823ZM21.0848 17.4725L14.8029 23.7544L12.3875 21.3389C12.1311 21.0827 11.7835 20.9389 11.4211 20.939C11.0587 20.9392 10.7111 21.0832 10.455 21.3396C10.1988 21.596 10.0549 21.9436 10.0551 22.306C10.0552 22.6684 10.1993 23.0159 10.4556 23.2721L13.74 26.5565C13.8796 26.6961 14.0453 26.8069 14.2277 26.8825C14.41 26.958 14.6055 26.9969 14.8029 26.9969C15.0003 26.9969 15.1958 26.958 15.3782 26.8825C15.5606 26.8069 15.7263 26.6961 15.8658 26.5565L23.0166 19.4044C23.1471 19.2783 23.2512 19.1276 23.3228 18.9609C23.3944 18.7942 23.4321 18.6149 23.4337 18.4335C23.4352 18.2521 23.4007 18.0722 23.332 17.9043C23.2633 17.7364 23.1618 17.5839 23.0336 17.4556C22.9053 17.3273 22.7527 17.2259 22.5848 17.1572C22.4169 17.0885 22.237 17.0539 22.0556 17.0555C21.8742 17.0571 21.6949 17.0948 21.5283 17.1664C21.3616 17.238 21.2108 17.342 21.0848 17.4725Z" fill="url(#paint0_linear_159_268)"></path></g><defs><linearGradient id="paint0_linear_159_268" x1="63.8907" y1="3.00001" x2="150.907" y2="36.9691" gradientUnits="userSpaceOnUse"><stop stop-color="#299EF3"></stop><stop offset="1" stop-color="#7854F7"></stop></linearGradient><clipPath id="clip0_159_268"><rect width="32.7892" height="32.7892" fill="white" transform="translate(0 5.68335)"></rect></clipPath></defs></svg>