<svg width="213" height="42" viewBox="0 0 213 42" fill="none" xmlns="http://www.w3.org/2000/svg">
<path d="M1.01136 15V3.36364H3.47159V8.16477H8.46591V3.36364H10.9205V15H8.46591V10.1932H3.47159V15H1.01136ZM16.8466 15.1705C15.964 15.1705 15.2008 14.983 14.5568 14.608C13.9167 14.2292 13.4223 13.7027 13.0739 13.0284C12.7254 12.3504 12.5511 11.5644 12.5511 10.6705C12.5511 9.76894 12.7254 8.98106 13.0739 8.30682C13.4223 7.62879 13.9167 7.10227 14.5568 6.72727C15.2008 6.34848 15.964 6.15909 16.8466 6.15909C17.7292 6.15909 18.4905 6.34848 19.1307 6.72727C19.7746 7.10227 20.2708 7.62879 20.6193 8.30682C20.9678 8.98106 21.142 9.76894 21.142 10.6705C21.142 11.5644 20.9678 12.3504 20.6193 13.0284C20.2708 13.7027 19.7746 14.2292 19.1307 14.608C18.4905 14.983 17.7292 15.1705 16.8466 15.1705ZM16.858 13.2955C17.2595 13.2955 17.5947 13.1818 17.8636 12.9545C18.1326 12.7235 18.3352 12.4091 18.4716 12.0114C18.6117 11.6136 18.6818 11.161 18.6818 10.6534C18.6818 10.1458 18.6117 9.69318 18.4716 9.29545C18.3352 8.89773 18.1326 8.58333 17.8636 8.35227C17.5947 8.12121 17.2595 8.00568 16.858 8.00568C16.4527 8.00568 16.1117 8.12121 15.8352 8.35227C15.5625 8.58333 15.3561 8.89773 15.2159 9.29545C15.0795 9.69318 15.0114 10.1458 15.0114 10.6534C15.0114 11.161 15.0795 11.6136 15.2159 12.0114C15.3561 12.4091 15.5625 12.7235 15.8352 12.9545C16.1117 13.1818 16.4527 13.2955 16.858 13.2955ZM22.7159 15V6.27273H25.0227V7.8125H25.125C25.3068 7.30114 25.6098 6.89773 26.0341 6.60227C26.4583 6.30682 26.9659 6.15909 27.5568 6.15909C28.1553 6.15909 28.6648 6.30871 29.0852 6.60795C29.5057 6.90341 29.786 7.30492 29.9261 7.8125H30.017C30.1951 7.3125 30.517 6.91288 30.983 6.61364C31.4527 6.31061 32.0076 6.15909 32.6477 6.15909C33.4621 6.15909 34.1231 6.41856 34.6307 6.9375C35.142 7.45265 35.3977 8.18371 35.3977 9.13068V15H32.983V9.60795C32.983 9.12311 32.8542 8.75947 32.5966 8.51705C32.339 8.27462 32.017 8.15341 31.6307 8.15341C31.1913 8.15341 30.8485 8.29356 30.6023 8.57386C30.3561 8.85038 30.233 9.21591 30.233 9.67045V15H27.8864V9.55682C27.8864 9.12879 27.7633 8.78788 27.517 8.53409C27.2746 8.2803 26.9545 8.15341 26.5568 8.15341C26.2879 8.15341 26.0455 8.22159 25.8295 8.35795C25.6174 8.49053 25.4489 8.67803 25.3239 8.92045C25.1989 9.15909 25.1364 9.43939 25.1364 9.76136V15H22.7159ZM41.2869 15.1705C40.3892 15.1705 39.6165 14.9886 38.9688 14.625C38.3248 14.2576 37.8286 13.7386 37.4801 13.0682C37.1316 12.3939 36.9574 11.5966 36.9574 10.6761C36.9574 9.77841 37.1316 8.99053 37.4801 8.3125C37.8286 7.63447 38.3191 7.10606 38.9517 6.72727C39.5881 6.34848 40.3343 6.15909 41.1903 6.15909C41.7661 6.15909 42.3021 6.25189 42.7983 6.4375C43.2983 6.61932 43.7339 6.89394 44.1051 7.26136C44.4801 7.62879 44.7718 8.09091 44.9801 8.64773C45.1884 9.20076 45.2926 9.84848 45.2926 10.5909V11.2557H37.9233V9.75568H43.0142C43.0142 9.4072 42.9384 9.09848 42.7869 8.82955C42.6354 8.56061 42.4252 8.35038 42.1562 8.19886C41.8911 8.04356 41.5824 7.96591 41.2301 7.96591C40.8627 7.96591 40.5369 8.05114 40.2528 8.22159C39.9725 8.38826 39.7528 8.61364 39.5938 8.89773C39.4347 9.17803 39.3532 9.49053 39.3494 9.83523V11.2614C39.3494 11.6932 39.429 12.0663 39.5881 12.3807C39.7509 12.6951 39.9801 12.9375 40.2756 13.108C40.571 13.2784 40.9214 13.3636 41.3267 13.3636C41.5956 13.3636 41.8419 13.3258 42.0653 13.25C42.2888 13.1742 42.4801 13.0606 42.6392 12.9091C42.7983 12.7576 42.9195 12.572 43.0028 12.3523L45.2415 12.5C45.1278 13.0379 44.8949 13.5076 44.5426 13.9091C44.1941 14.3068 43.7434 14.6174 43.1903 14.8409C42.6411 15.0606 42.0066 15.1705 41.2869 15.1705ZM52.2926 15H50.8153L55.0881 3.36364H56.5426L60.8153 15H59.3381L55.8608 5.20455H55.7699L52.2926 15ZM52.8381 10.4545H58.7926V11.7045H52.8381V10.4545ZM62.446 18.2727V6.27273H63.7415V7.65909H63.9006C63.9991 7.50758 64.1354 7.31439 64.3097 7.07955C64.4877 6.84091 64.7415 6.62879 65.071 6.44318C65.4044 6.25379 65.8551 6.15909 66.4233 6.15909C67.1581 6.15909 67.8059 6.3428 68.3665 6.71023C68.9271 7.07765 69.3646 7.59848 69.679 8.27273C69.9934 8.94697 70.1506 9.74242 70.1506 10.6591C70.1506 11.5833 69.9934 12.3845 69.679 13.0625C69.3646 13.7367 68.929 14.2595 68.3722 14.6307C67.8153 14.9981 67.1733 15.1818 66.446 15.1818C65.8854 15.1818 65.4366 15.089 65.0994 14.9034C64.7623 14.714 64.5028 14.5 64.321 14.2614C64.1392 14.0189 63.9991 13.8182 63.9006 13.6591H63.7869V18.2727H62.446ZM63.7642 10.6364C63.7642 11.2955 63.8608 11.8769 64.054 12.3807C64.2472 12.8807 64.5294 13.2727 64.9006 13.5568C65.2718 13.8371 65.7263 13.9773 66.2642 13.9773C66.8248 13.9773 67.2926 13.8295 67.6676 13.5341C68.0464 13.2348 68.3305 12.8333 68.5199 12.3295C68.7131 11.822 68.8097 11.2576 68.8097 10.6364C68.8097 10.0227 68.715 9.4697 68.5256 8.97727C68.34 8.48106 68.0578 8.08902 67.679 7.80114C67.304 7.50947 66.8324 7.36364 66.2642 7.36364C65.7188 7.36364 65.2604 7.50189 64.8892 7.77841C64.518 8.05114 64.2377 8.43371 64.0483 8.92614C63.8589 9.41477 63.7642 9.98485 63.7642 10.6364ZM72.196 18.2727V6.27273H73.4915V7.65909H73.6506C73.7491 7.50758 73.8854 7.31439 74.0597 7.07955C74.2377 6.84091 74.4915 6.62879 74.821 6.44318C75.1544 6.25379 75.6051 6.15909 76.1733 6.15909C76.9081 6.15909 77.5559 6.3428 78.1165 6.71023C78.6771 7.07765 79.1146 7.59848 79.429 8.27273C79.7434 8.94697 79.9006 9.74242 79.9006 10.6591C79.9006 11.5833 79.7434 12.3845 79.429 13.0625C79.1146 13.7367 78.679 14.2595 78.1222 14.6307C77.5653 14.9981 76.9233 15.1818 76.196 15.1818C75.6354 15.1818 75.1866 15.089 74.8494 14.9034C74.5123 14.714 74.2528 14.5 74.071 14.2614C73.8892 14.0189 73.7491 13.8182 73.6506 13.6591H73.5369V18.2727H72.196ZM73.5142 10.6364C73.5142 11.2955 73.6108 11.8769 73.804 12.3807C73.9972 12.8807 74.2794 13.2727 74.6506 13.5568C75.0218 13.8371 75.4763 13.9773 76.0142 13.9773C76.5748 13.9773 77.0426 13.8295 77.4176 13.5341C77.7964 13.2348 78.0805 12.8333 78.2699 12.3295C78.4631 11.822 78.5597 11.2576 78.5597 10.6364C78.5597 10.0227 78.465 9.4697 78.2756 8.97727C78.09 8.48106 77.8078 8.08902 77.429 7.80114C77.054 7.50947 76.5824 7.36364 76.0142 7.36364C75.4688 7.36364 75.0104 7.50189 74.6392 7.77841C74.268 8.05114 73.9877 8.43371 73.7983 8.92614C73.6089 9.41477 73.5142 9.98485 73.5142 10.6364ZM83.2869 3.36364V15H81.946V3.36364H83.2869ZM85.7429 15V6.27273H87.0838V15H85.7429ZM86.4247 4.81818C86.1634 4.81818 85.938 4.72917 85.7486 4.55114C85.563 4.37311 85.4702 4.15909 85.4702 3.90909C85.4702 3.65909 85.563 3.44508 85.7486 3.26705C85.938 3.08902 86.1634 3 86.4247 3C86.6861 3 86.9096 3.08902 87.0952 3.26705C87.2846 3.44508 87.3793 3.65909 87.3793 3.90909C87.3793 4.15909 87.2846 4.37311 87.0952 4.55114C86.9096 4.72917 86.6861 4.81818 86.4247 4.81818ZM92.108 15.2045C91.5549 15.2045 91.053 15.1004 90.6023 14.892C90.1515 14.6799 89.7936 14.375 89.5284 13.9773C89.2633 13.5758 89.1307 13.0909 89.1307 12.5227C89.1307 12.0227 89.2292 11.6174 89.4261 11.3068C89.6231 10.9924 89.8864 10.7462 90.2159 10.5682C90.5455 10.3902 90.9091 10.2576 91.3068 10.1705C91.7083 10.0795 92.1117 10.0076 92.517 9.95455C93.0473 9.88636 93.4773 9.83523 93.8068 9.80114C94.1402 9.76326 94.3826 9.70076 94.5341 9.61364C94.6894 9.52652 94.767 9.375 94.767 9.15909V9.11364C94.767 8.55303 94.6136 8.11742 94.3068 7.80682C94.0038 7.49621 93.5436 7.34091 92.9261 7.34091C92.286 7.34091 91.7841 7.48106 91.4205 7.76136C91.0568 8.04167 90.8011 8.34091 90.6534 8.65909L89.3807 8.20455C89.608 7.67424 89.911 7.26136 90.2898 6.96591C90.6723 6.66667 91.089 6.45833 91.5398 6.34091C91.9943 6.2197 92.4413 6.15909 92.8807 6.15909C93.161 6.15909 93.483 6.19318 93.8466 6.26136C94.214 6.32576 94.5682 6.46023 94.9091 6.66477C95.2538 6.86932 95.5398 7.17803 95.767 7.59091C95.9943 8.00379 96.108 8.55682 96.108 9.25V15H94.767V13.8182H94.6989C94.608 14.0076 94.4564 14.2102 94.2443 14.4261C94.0322 14.642 93.75 14.8258 93.3977 14.9773C93.0455 15.1288 92.6155 15.2045 92.108 15.2045ZM92.3125 14C92.8428 14 93.2898 13.8958 93.6534 13.6875C94.0208 13.4792 94.2973 13.2102 94.483 12.8807C94.6723 12.5511 94.767 12.2045 94.767 11.8409V10.6136C94.7102 10.6818 94.5852 10.7443 94.392 10.8011C94.2027 10.8542 93.983 10.9015 93.733 10.9432C93.4867 10.9811 93.2462 11.0152 93.0114 11.0455C92.7803 11.072 92.5928 11.0947 92.4489 11.1136C92.1004 11.1591 91.7746 11.233 91.4716 11.3352C91.1723 11.4337 90.9299 11.5833 90.7443 11.7841C90.5625 11.9811 90.4716 12.25 90.4716 12.5909C90.4716 13.0568 90.6439 13.4091 90.9886 13.6477C91.3371 13.8826 91.7784 14 92.3125 14ZM99.8963 9.75V15H98.5554V6.27273H99.8509V7.63636H99.9645C100.169 7.19318 100.48 6.83712 100.896 6.56818C101.313 6.29545 101.851 6.15909 102.51 6.15909C103.101 6.15909 103.618 6.2803 104.061 6.52273C104.504 6.76136 104.849 7.125 105.095 7.61364C105.341 8.09848 105.464 8.71212 105.464 9.45455V15H104.124V9.54545C104.124 8.85985 103.946 8.32576 103.589 7.94318C103.233 7.55682 102.745 7.36364 102.124 7.36364C101.696 7.36364 101.313 7.45644 100.976 7.64205C100.643 7.82765 100.379 8.09848 100.186 8.45455C99.9929 8.81061 99.8963 9.24242 99.8963 9.75ZM111.46 15.1818C110.642 15.1818 109.938 14.9886 109.347 14.6023C108.756 14.2159 108.301 13.6837 107.983 13.0057C107.665 12.3277 107.506 11.553 107.506 10.6818C107.506 9.79545 107.669 9.01326 107.994 8.33523C108.324 7.65341 108.782 7.12121 109.369 6.73864C109.96 6.35227 110.65 6.15909 111.438 6.15909C112.051 6.15909 112.604 6.27273 113.097 6.5C113.589 6.72727 113.992 7.04545 114.307 7.45455C114.621 7.86364 114.816 8.34091 114.892 8.88636H113.551C113.449 8.48864 113.222 8.13636 112.869 7.82955C112.521 7.51894 112.051 7.36364 111.46 7.36364C110.938 7.36364 110.479 7.5 110.085 7.77273C109.695 8.04167 109.39 8.42235 109.17 8.91477C108.955 9.40341 108.847 9.97727 108.847 10.6364C108.847 11.3106 108.953 11.8977 109.165 12.3977C109.381 12.8977 109.684 13.286 110.074 13.5625C110.468 13.839 110.93 13.9773 111.46 13.9773C111.809 13.9773 112.125 13.9167 112.409 13.7955C112.693 13.6742 112.934 13.5 113.131 13.2727C113.328 13.0455 113.468 12.7727 113.551 12.4545H114.892C114.816 12.9697 114.629 13.4337 114.33 13.8466C114.034 14.2557 113.642 14.5814 113.153 14.8239C112.669 15.0625 112.104 15.1818 111.46 15.1818ZM120.511 15.1818C119.67 15.1818 118.945 14.9962 118.335 14.625C117.729 14.25 117.261 13.7273 116.932 13.0568C116.606 12.3826 116.443 11.5985 116.443 10.7045C116.443 9.81061 116.606 9.02273 116.932 8.34091C117.261 7.6553 117.72 7.12121 118.307 6.73864C118.898 6.35227 119.587 6.15909 120.375 6.15909C120.83 6.15909 121.278 6.23485 121.722 6.38636C122.165 6.53788 122.568 6.78409 122.932 7.125C123.295 7.46212 123.585 7.90909 123.801 8.46591C124.017 9.02273 124.125 9.70833 124.125 10.5227V11.0909H117.398V9.93182H122.761C122.761 9.43939 122.663 9 122.466 8.61364C122.273 8.22727 121.996 7.92235 121.636 7.69886C121.28 7.47538 120.86 7.36364 120.375 7.36364C119.841 7.36364 119.379 7.49621 118.989 7.76136C118.602 8.02273 118.305 8.36364 118.097 8.78409C117.888 9.20455 117.784 9.6553 117.784 10.1364V10.9091C117.784 11.5682 117.898 12.1269 118.125 12.5852C118.356 13.0398 118.676 13.3864 119.085 13.625C119.494 13.8598 119.97 13.9773 120.511 13.9773C120.864 13.9773 121.182 13.928 121.466 13.8295C121.754 13.7273 122.002 13.5758 122.21 13.375C122.419 13.1705 122.58 12.9167 122.693 12.6136L123.989 12.9773C123.852 13.4167 123.623 13.803 123.301 14.1364C122.979 14.4659 122.581 14.7235 122.108 14.9091C121.634 15.0909 121.102 15.1818 120.511 15.1818ZM130.847 15V3.36364H134.778C135.688 3.36364 136.434 3.51894 137.017 3.82955C137.6 4.13636 138.032 4.55871 138.312 5.09659C138.593 5.63447 138.733 6.24621 138.733 6.93182C138.733 7.61742 138.593 8.22538 138.312 8.75568C138.032 9.28598 137.602 9.70265 137.023 10.0057C136.443 10.3049 135.703 10.4545 134.801 10.4545H131.619V9.18182H134.756C135.377 9.18182 135.877 9.09091 136.256 8.90909C136.638 8.72727 136.915 8.4697 137.085 8.13636C137.259 7.79924 137.347 7.39773 137.347 6.93182C137.347 6.46591 137.259 6.05871 137.085 5.71023C136.911 5.36174 136.633 5.0928 136.25 4.90341C135.867 4.71023 135.362 4.61364 134.733 4.61364H132.256V15H130.847ZM136.324 9.77273L139.188 15H137.551L134.733 9.77273H136.324ZM144.464 15.1818C143.624 15.1818 142.898 14.9962 142.288 14.625C141.682 14.25 141.214 13.7273 140.885 13.0568C140.559 12.3826 140.396 11.5985 140.396 10.7045C140.396 9.81061 140.559 9.02273 140.885 8.34091C141.214 7.6553 141.673 7.12121 142.26 6.73864C142.851 6.35227 143.54 6.15909 144.328 6.15909C144.783 6.15909 145.232 6.23485 145.675 6.38636C146.118 6.53788 146.521 6.78409 146.885 7.125C147.249 7.46212 147.538 7.90909 147.754 8.46591C147.97 9.02273 148.078 9.70833 148.078 10.5227V11.0909H141.351V9.93182H146.714C146.714 9.43939 146.616 9 146.419 8.61364C146.226 8.22727 145.949 7.92235 145.589 7.69886C145.233 7.47538 144.813 7.36364 144.328 7.36364C143.794 7.36364 143.332 7.49621 142.942 7.76136C142.555 8.02273 142.258 8.36364 142.05 8.78409C141.841 9.20455 141.737 9.6553 141.737 10.1364V10.9091C141.737 11.5682 141.851 12.1269 142.078 12.5852C142.309 13.0398 142.629 13.3864 143.038 13.625C143.447 13.8598 143.923 13.9773 144.464 13.9773C144.817 13.9773 145.135 13.928 145.419 13.8295C145.707 13.7273 145.955 13.5758 146.163 13.375C146.372 13.1705 146.533 12.9167 146.646 12.6136L147.942 12.9773C147.805 13.4167 147.576 13.803 147.254 14.1364C146.932 14.4659 146.535 14.7235 146.061 14.9091C145.588 15.0909 145.055 15.1818 144.464 15.1818ZM150.118 18.2727V6.27273H151.413V7.65909H151.572C151.671 7.50758 151.807 7.31439 151.982 7.07955C152.16 6.84091 152.413 6.62879 152.743 6.44318C153.076 6.25379 153.527 6.15909 154.095 6.15909C154.83 6.15909 155.478 6.3428 156.038 6.71023C156.599 7.07765 157.036 7.59848 157.351 8.27273C157.665 8.94697 157.822 9.74242 157.822 10.6591C157.822 11.5833 157.665 12.3845 157.351 13.0625C157.036 13.7367 156.601 14.2595 156.044 14.6307C155.487 14.9981 154.845 15.1818 154.118 15.1818C153.557 15.1818 153.108 15.089 152.771 14.9034C152.434 14.714 152.175 14.5 151.993 14.2614C151.811 14.0189 151.671 13.8182 151.572 13.6591H151.459V18.2727H150.118ZM151.436 10.6364C151.436 11.2955 151.533 11.8769 151.726 12.3807C151.919 12.8807 152.201 13.2727 152.572 13.5568C152.944 13.8371 153.398 13.9773 153.936 13.9773C154.497 13.9773 154.964 13.8295 155.339 13.5341C155.718 13.2348 156.002 12.8333 156.192 12.3295C156.385 11.822 156.482 11.2576 156.482 10.6364C156.482 10.0227 156.387 9.4697 156.197 8.97727C156.012 8.48106 155.73 8.08902 155.351 7.80114C154.976 7.50947 154.504 7.36364 153.936 7.36364C153.391 7.36364 152.932 7.50189 152.561 7.77841C152.19 8.05114 151.91 8.43371 151.72 8.92614C151.531 9.41477 151.436 9.98485 151.436 10.6364ZM162.436 15.2045C161.883 15.2045 161.381 15.1004 160.93 14.892C160.48 14.6799 160.122 14.375 159.857 13.9773C159.591 13.5758 159.459 13.0909 159.459 12.5227C159.459 12.0227 159.557 11.6174 159.754 11.3068C159.951 10.9924 160.214 10.7462 160.544 10.5682C160.874 10.3902 161.237 10.2576 161.635 10.1705C162.036 10.0795 162.44 10.0076 162.845 9.95455C163.375 9.88636 163.805 9.83523 164.135 9.80114C164.468 9.76326 164.711 9.70076 164.862 9.61364C165.018 9.52652 165.095 9.375 165.095 9.15909V9.11364C165.095 8.55303 164.942 8.11742 164.635 7.80682C164.332 7.49621 163.872 7.34091 163.254 7.34091C162.614 7.34091 162.112 7.48106 161.749 7.76136C161.385 8.04167 161.129 8.34091 160.982 8.65909L159.709 8.20455C159.936 7.67424 160.239 7.26136 160.618 6.96591C161 6.66667 161.417 6.45833 161.868 6.34091C162.322 6.2197 162.769 6.15909 163.209 6.15909C163.489 6.15909 163.811 6.19318 164.175 6.26136C164.542 6.32576 164.896 6.46023 165.237 6.66477C165.582 6.86932 165.868 7.17803 166.095 7.59091C166.322 8.00379 166.436 8.55682 166.436 9.25V15H165.095V13.8182H165.027C164.936 14.0076 164.785 14.2102 164.572 14.4261C164.36 14.642 164.078 14.8258 163.726 14.9773C163.374 15.1288 162.944 15.2045 162.436 15.2045ZM162.641 14C163.171 14 163.618 13.8958 163.982 13.6875C164.349 13.4792 164.625 13.2102 164.811 12.8807C165 12.5511 165.095 12.2045 165.095 11.8409V10.6136C165.038 10.6818 164.913 10.7443 164.72 10.8011C164.531 10.8542 164.311 10.9015 164.061 10.9432C163.815 10.9811 163.574 11.0152 163.339 11.0455C163.108 11.072 162.921 11.0947 162.777 11.1136C162.429 11.1591 162.103 11.233 161.8 11.3352C161.5 11.4337 161.258 11.5833 161.072 11.7841C160.891 11.9811 160.8 12.25 160.8 12.5909C160.8 13.0568 160.972 13.4091 161.317 13.6477C161.665 13.8826 162.107 14 162.641 14ZM168.884 15V6.27273H170.224V15H168.884ZM169.565 4.81818C169.304 4.81818 169.079 4.72917 168.889 4.55114C168.704 4.37311 168.611 4.15909 168.611 3.90909C168.611 3.65909 168.704 3.44508 168.889 3.26705C169.079 3.08902 169.304 3 169.565 3C169.827 3 170.05 3.08902 170.236 3.26705C170.425 3.44508 170.52 3.65909 170.52 3.90909C170.52 4.15909 170.425 4.37311 170.236 4.55114C170.05 4.72917 169.827 4.81818 169.565 4.81818ZM172.68 15V6.27273H173.976V7.59091H174.067C174.226 7.15909 174.514 6.80871 174.93 6.53977C175.347 6.27083 175.817 6.13636 176.339 6.13636C176.438 6.13636 176.561 6.13826 176.709 6.14205C176.857 6.14583 176.968 6.15152 177.044 6.15909V7.52273C176.999 7.51136 176.894 7.49432 176.732 7.47159C176.572 7.44508 176.404 7.43182 176.226 7.43182C175.802 7.43182 175.423 7.52083 175.089 7.69886C174.76 7.87311 174.499 8.11553 174.305 8.42614C174.116 8.73295 174.021 9.08333 174.021 9.47727V15H172.68Z" fill="white
"/>
</svg>
