<svg width="100" height="20" viewBox="0 0 100 20" fill="none" xmlns="http://www.w3.org/2000/svg" class="mx-auto sm:mx-0"><g clip-path="url(#clip0_254_24394)"><path d="M50.9446 0.320374H46.9554L43.6711 9.65676H38.917V0.320374H34.9878V12.5095H42.6663H44.3009H46.5055L46.9554 10.9077H50.8546L51.3195 12.5095H55.2337L50.9446 0.320374ZM47.7052 8.36004L48.92 3.99696L50.1798 8.36004H47.7052Z" fill="black"></path><path d="M59.7183 0.320374H55.7891V12.4943H59.7183V0.320374Z" fill="black"></path><path d="M65.0571 8.25325V12.5095H61.1279V0.320374H66.7818C70.771 0.320374 72.0907 1.41877 72.0907 3.78338C72.0907 5.18689 71.4759 6.36156 70.0811 6.75821C71.3409 7.23113 72.1057 7.53624 72.1057 9.99238C72.1057 11.579 72.0607 12.1282 72.5256 12.1282V12.5095H68.5364C68.4315 12.2349 68.3415 11.4569 68.3415 10.3738C68.3415 8.78719 68.0715 8.25325 66.2419 8.25325H65.0571ZM65.0571 5.58353H66.5868C67.8016 5.58353 68.4465 5.27842 68.4465 4.43937C68.4465 3.58506 67.7866 3.17316 66.8718 3.17316H65.0421V5.58353H65.0571Z" fill="black"></path><path d="M6.83863 3.85965C6.77864 3.44775 6.56869 3.18841 6.28374 3.03585C5.9988 2.8833 5.65387 2.82227 5.26395 2.82227C4.40912 2.82227 4.0192 3.08162 4.0192 3.50877C4.0192 5.33944 10.8878 4.21053 10.8878 8.63463C10.9028 11.4569 8.59328 12.8146 5.30894 12.8146C2.14457 12.8146 0.089982 10.9535 0 8.74142H3.74925C3.83923 9.18383 4.06419 9.5042 4.40912 9.70252C4.72405 9.91609 5.14397 10.0076 5.5189 10.0076C6.4937 10.0076 7.15357 9.68726 7.15357 9.10755C7.15357 7.26163 0.269946 8.52784 0.269946 3.89016C0.269946 1.31198 2.45951 0 5.45891 0C8.78824 0 10.3029 1.72387 10.5729 3.85965H6.83863Z" fill="black"></path><path d="M11.7275 0.320374H15.6568V7.61252C15.6568 8.8177 15.8967 9.83982 17.5014 9.83982C18.9261 9.83982 19.331 8.92449 19.331 7.61252V0.320374H23.2452V7.20062C23.2452 11.106 21.4606 12.8147 17.4864 12.8147C13.7971 12.8147 11.7275 11.3806 11.7275 7.18536V0.320374Z" fill="black"></path><path d="M24.79 12.5095V0.320374H28.7193V9.65676H34.1032V12.5095H24.79Z" fill="black"></path><path d="M93.671 0C90.1767 0 87.3423 2.8833 87.3423 6.43783C87.3423 9.99237 90.1767 12.8757 93.671 12.8757C97.1653 12.8757 99.9997 9.99237 99.9997 6.43783C99.9997 2.8833 97.1653 0 93.671 0ZM93.671 9.65675C91.9164 9.65675 90.5066 8.20748 90.5066 6.43783C90.5066 4.65294 91.9314 3.21892 93.671 3.21892C95.4257 3.21892 96.8354 4.66819 96.8354 6.43783C96.8354 8.22273 95.4257 9.65675 93.671 9.65675Z" fill="#00833E"></path><path d="M95.2611 8.05491C96.139 8.05491 96.8508 7.33092 96.8508 6.43783C96.8508 5.54473 96.139 4.82074 95.2611 4.82074C94.3831 4.82074 93.6714 5.54473 93.6714 6.43783C93.6714 7.33092 94.3831 8.05491 95.2611 8.05491Z" fill="black"></path><path d="M79.0341 13.8672C82.4684 17.8947 88.4672 18.3219 92.4264 14.8131L94.496 17.2387C89.217 21.9069 82.4084 20.2898 77.8193 14.9199L79.0341 13.8672Z" fill="#FF5800"></path><path d="M86.2028 5.36998H81.0138V6.43786H83.3383L83.1284 6.51414C83.1134 7.30743 82.7984 8.10072 82.1986 8.71094C80.9688 9.96189 78.9592 9.96189 77.7145 8.71094C76.4847 7.45998 76.4847 5.41574 77.7145 4.14954C78.9442 2.89858 80.9538 2.89858 82.1986 4.14954L84.4331 1.89172C81.9586 -0.625445 77.9544 -0.625445 75.4799 1.89172C73.0054 4.40888 73.0054 8.4821 75.4799 10.9993C77.9544 13.5164 81.9586 13.5164 84.4331 10.9993C85.9328 9.45846 86.5327 7.3532 86.2028 5.36998Z" fill="#00833E"></path></g><defs><clipPath id="clip0_254_24394"><rect width="100" height="20" fill="black"></rect></clipPath></defs></svg>