<svg style="pointer-events: none" viewBox="0 0 244 19" fill="none" xmlns="http://www.w3.org/2000/svg">
                    <path fill-rule="evenodd" clip-rule="evenodd" d="M14.0373 1.62472C21.7873 1.62472 28.1413 5.20872 28.0733 9.91172C28.0033 14.4337 21.7873 18.1947 14.0373 18.1947C6.2873 18.1947 -0.0156952 14.4337 0.00027442 9.91172C0.0193048 5.38472 6.2873 1.62472 14.0373 1.62472ZM47.7153 1.77762H52.8603V11.1666C52.8603 12.7126 53.1663 14.0446 55.2763 14.0446C57.1363 14.0446 57.6733 12.8666 57.6733 11.1666V1.77762H62.8163V10.6446C62.8163 15.6756 60.4833 17.8776 55.2763 17.8776C50.4223 17.8776 47.7153 16.0236 47.7153 10.6196V1.77762ZM39.487 1.35742C43.843 1.35742 45.828 3.58742 46.197 6.32842H41.308C41.223 5.78742 40.947 5.46342 40.578 5.26142C40.205 5.06842 39.748 4.97942 39.242 4.97942C38.116 4.97942 37.617 5.31242 37.617 5.87242C37.617 8.22642 46.628 6.76742 46.628 12.4784C46.628 16.1124 43.6 17.8774 39.295 17.8774C35.153 17.8774 32.451 15.4634 32.34 12.6284H37.26C37.371 13.1914 37.674 13.6124 38.116 13.8644C38.525 14.1304 39.073 14.2594 39.572 14.2594C40.858 14.2594 41.709 13.8504 41.709 13.1064C41.709 10.7304 32.689 12.3674 32.689 6.38042C32.689 3.03742 35.562 1.35742 39.487 1.35742ZM164.66 1.62252C167.835 1.62252 170.541 3.54952 171.08 6.76752H170.174C169.455 4.10552 167.488 2.44352 164.673 2.44352C160.502 2.44352 158.314 5.95052 158.314 9.79552C158.314 13.7355 160.437 16.9765 164.673 16.9765C168.353 16.9765 170.669 14.4695 170.515 10.6855H164.83V9.86352H171.338V17.4305H170.515V14.1415H170.473C169.717 16.3975 167.358 17.7975 164.635 17.7975C159.965 17.7975 157.369 14.2345 157.369 9.79552C157.369 5.42752 160.008 1.62252 164.66 1.62252ZM69.9833 1.77752V13.8055H77.0443V17.4675H64.8403V1.77752H69.9833ZM83.3449 1.77772V13.8057H89.5809L93.8879 1.77772H99.1159L104.74 17.4677H99.6179L99.0079 15.3957H93.8879L93.2999 17.4677H78.1969V1.77772H83.3449ZM119.876 1.77742C125.108 1.77742 126.827 3.19542 126.827 6.24442C126.827 8.05742 126.021 9.57542 124.192 10.0774L124.626 10.2411C125.973 10.7653 126.79 11.3289 126.843 13.9616L126.845 15.4504C126.852 16.572 126.922 16.9844 127.391 16.9844V17.4674H122.187C122.072 17.1638 121.959 16.3541 121.933 15.2252L121.922 14.3645C121.876 12.592 121.427 11.9954 119.176 11.9954H117.614V17.4674H112.47V1.77742H119.876ZM110.617 1.77762V17.4666H105.471V1.77762H110.617ZM235.921 1.98962L242.021 17.4306H241.001L239.051 12.4806H231.663L229.693 17.4306H228.673L234.885 1.98962H235.921ZM216.825 1.98952L226.575 16.1555H226.62V1.98952H227.566V17.4305H226.45L216.63 3.16052H216.582V17.4305H215.641V1.98952H216.825ZM150.75 1.98942C153.451 1.98942 155.636 2.98442 155.636 5.96842C155.636 8.04742 154.377 9.57942 152.326 9.92642V9.96842C154.623 10.2304 155.179 11.6794 155.336 13.2794C155.49 14.8744 155.225 16.6104 155.852 17.4304H154.795C154.207 16.3704 154.554 14.5984 154.377 13.1064C154.184 11.6104 153.451 10.3994 150.75 10.3994H145.255V17.4304H144.306V1.98942H150.75ZM212.906 1.98962V17.4306H211.954V1.98962H212.906ZM184.327 1.98962V2.80962H174.913V8.99662H183.78V9.82062H174.913V16.6106H184.442V17.4306H173.95V1.98962H184.327ZM187.254 1.98952L197.013 16.1555H197.056V1.98952H198.012V17.4305H196.88L187.062 3.16052H187.019V17.4305H186.067V1.98952H187.254ZM137.105 1.98962L143.204 17.4306H142.186L140.239 12.4806H132.841L130.874 17.4306H129.858L136.069 1.98962H137.105ZM210.898 1.98932V2.80932H205.448V17.4303H204.497V2.80932H199.069V1.98932H210.898ZM9.94931 4.04172H8.98131V8.91872L4.75231 6.48072L4.27231 7.31872L8.50031 9.75872L4.27231 12.2067L4.75231 13.0427L8.98131 10.5927V15.4817H9.94931V10.5927L14.1843 13.0427L14.6653 12.2017L10.4313 9.75872L14.6653 7.31872L14.1843 6.48072L9.94931 8.91872V4.04172ZM18.8233 10.8467C17.5933 10.8467 16.6083 11.8347 16.6083 13.0607C16.6083 14.2837 17.5933 15.2747 18.8233 15.2747C20.0533 15.2747 21.0443 14.2837 21.0443 13.0607C21.0443 11.8347 20.0533 10.8467 18.8233 10.8467ZM18.8232 11.6184C19.6182 11.6184 20.2622 12.2654 20.2622 13.0604C20.2622 13.8594 19.6182 14.4994 18.8232 14.4994C18.0282 14.4994 17.3842 13.8594 17.3842 13.0604C17.3842 12.2654 18.0282 11.6184 18.8232 11.6184ZM96.4579 6.50272L94.8709 12.1257H98.1159L96.4579 6.50272ZM15.4403 7.50172C14.1943 7.50172 13.1793 8.51872 13.1793 9.76672C13.1793 11.0157 14.1943 12.0297 15.4403 12.0297C16.6933 12.0297 17.7063 11.0157 17.7063 9.76672C17.7063 8.51872 16.6933 7.50172 15.4403 7.50172ZM21.9853 7.65472C20.8113 7.65472 19.8673 8.60072 19.8673 9.76672C19.8673 10.9317 20.8113 11.8757 21.9853 11.8757C23.1483 11.8757 24.0933 10.9317 24.0933 9.76672C24.0933 8.54272 23.2063 7.65472 21.9853 7.65472ZM235.442 2.91462H235.404L231.963 11.6536H238.749L235.442 2.91462ZM136.62 2.91462H136.579L133.145 11.6536H139.939L136.62 2.91462ZM15.4403 8.36842C16.2163 8.36842 16.8413 8.99242 16.8413 9.76642C16.8413 10.5414 16.2163 11.1664 15.4403 11.1664C14.6723 11.1664 14.0373 10.5414 14.0373 9.76642C14.0373 8.99242 14.6723 8.36842 15.4403 8.36842ZM21.9853 8.39232C22.7793 8.39232 23.3583 8.96732 23.3583 9.76632C23.3583 10.5273 22.7423 11.1343 21.9853 11.1343C21.2243 11.1343 20.6103 10.5273 20.6103 9.76632C20.6103 9.01032 21.2243 8.39232 21.9853 8.39232ZM150.75 2.80942H145.255V9.57942H150.75C152.998 9.57942 154.684 8.52342 154.684 6.03642C154.684 3.70042 152.828 2.80942 150.75 2.80942ZM18.8233 4.25572C17.5933 4.25572 16.6083 5.24672 16.6083 6.47772C16.6083 7.69672 17.5933 8.68972 18.8233 8.68972C20.0533 8.68972 21.0443 7.69672 21.0443 6.47772C21.0443 5.24672 20.0533 4.25572 18.8233 4.25572ZM120.01 5.43442H117.614V8.55442H119.637C121.22 8.55442 122.075 8.16042 122.075 7.07042C122.075 5.96042 121.208 5.43442 120.01 5.43442ZM18.8232 5.03532C19.6182 5.03532 20.2622 5.67632 20.2622 6.47832C20.2622 7.26932 19.6182 7.91532 18.8232 7.91532C18.0282 7.91532 17.3842 7.26932 17.3842 6.47832C17.3842 5.67632 18.0282 5.03532 18.8232 5.03532Z" fill="black"></path>
                </svg>